<?xml version="1.0" ?><svg height="64" id="svg8" version="1.1" viewBox="0 0 16.933333 16.933334" width="64" xmlns="http://www.w3.org/2000/svg" xmlns:cc="http://creativecommons.org/ns#" xmlns:dc="http://purl.org/dc/elements/1.1/" xmlns:inkscape="http://www.inkscape.org/namespaces/inkscape" xmlns:rdf="http://www.w3.org/1999/02/22-rdf-syntax-ns#" xmlns:sodipodi="http://sodipodi.sourceforge.net/DTD/sodipodi-0.dtd" xmlns:svg="http://www.w3.org/2000/svg"><defs id="defs2"/><g id="layer1"><path d="M 31.998047,0 C 29.800821,0 28,1.8045765 28,4.0019531 c 0,2.1973773 1.800821,4 3.998047,4 2.197228,0 4.001953,-1.8026227 4.001953,-4 C 36,1.8045765 34.195275,0 31.998047,0 Z m -6.078125,6.4980469 c -0.161261,0.00386 -0.324929,0.046753 -0.47461,0.1328125 L 9.6269531,15.763672 c -0.4791655,0.275085 -0.6444917,0.888156 -0.3691406,1.367187 0.2750665,0.479201 0.8862355,0.642568 1.3652345,0.367188 L 26.441406,8.3652344 C 26.920578,8.0901452 27.085907,7.4790309 26.810547,7 26.621425,6.670548 26.274694,6.489563 25.919922,6.4980469 Z m 12.009766,0.00586 C 37.527888,6.5903667 37.319833,6.7710287 37.1875,7 36.912139,7.4790309 37.077472,8.0901445 37.556641,8.3652344 l 15.8125,9.1269536 c 0.477067,0.276619 1.087628,0.115194 1.365234,-0.361329 0.280441,-0.48067 0.114488,-1.097776 -0.369141,-1.373047 L 38.552734,6.6308594 C 38.408583,6.5485488 38.23911,6.4908669 37.929688,6.5039062 Z m -5.931641,4.5039058 c -1.266149,0 -2.084802,0.101628 -2.757813,0.427735 -0.673007,0.32611 -1.053665,0.957928 -1.226562,1.373047 -0.172908,0.415118 -0.245714,0.661103 -0.472656,0.939453 -0.226955,0.27835 -0.640335,0.633541 -1.572266,1.027344 -0.935128,0.395154 -1.490183,0.453383 -1.859375,0.427734 -0.369211,-0.02566 -0.59218,-0.138107 -0.996094,-0.294922 -0.403917,-0.156814 -1.085664,-0.332395 -1.779297,-0.103515 -0.693635,0.228877 -1.324783,0.714111 -2.164062,1.564453 -0.839287,0.850341 -1.316419,1.480445 -1.535156,2.177734 -0.218752,0.697288 -0.03175,1.379282 0.132812,1.779297 0.164515,0.400014 0.278686,0.623283 0.310547,0.988281 0.03175,0.365 -0.0102,0.916372 -0.390625,1.853516 -0.380346,0.937142 -0.734518,1.370009 -1.011719,1.609375 -0.27722,0.239362 -0.514856,0.313439 -0.908203,0.480468 -0.393342,0.167035 -1.001716,0.511665 -1.335937,1.158204 -0.332363,0.64296 -0.428949,1.418531 -0.419922,2.583984 -2.7e-5,0.0033 2.5e-5,0.0046 0,0.0078 2.5e-5,0.0033 -2.7e-5,0.0046 0,0.0078 -0.0091,1.165453 0.08754,1.939072 0.419922,2.582031 0.334216,0.64654 0.942595,0.993127 1.335937,1.160156 0.393347,0.167035 0.630998,0.246961 0.908203,0.486329 0.277221,0.239365 0.631374,0.672232 1.011719,1.609375 0.380353,0.937147 0.422482,1.488515 0.390625,1.853515 -0.03175,0.364989 -0.14602,0.580451 -0.310547,0.980469 -0.164477,0.400013 -0.351571,1.082004 -0.132812,1.779297 0.218751,0.697292 0.695869,1.33521 1.535156,2.185547 0.168899,0.171137 0.328562,0.32489 0.482422,0.466797 C 16.59123,44.851354 15,48.5871 15,53.005859 v 6.998047 c 0,1.200681 0.37545,2.378561 1.291016,3.152344 0.915566,0.773786 2.254913,1.021899 3.820312,0.716797 3.242913,-0.895945 6.531906,-1.70715 9.707031,-2.640625 l 1.472657,1.472656 c 0.390889,0.392561 1.025126,0.392561 1.416015,0 l 1.458985,-1.458984 c 3.218561,0.878823 6.459949,1.749003 9.720703,2.626953 1.565389,0.305121 2.904752,0.057 3.820312,-0.716797 C 48.622584,62.382467 49,61.204583 49,60.003906 v -6.998047 c 0,-4.420278 -1.593068,-8.156285 -4.65625,-10.888671 0.152353,-0.141092 0.308861,-0.294917 0.476562,-0.464844 0.839284,-0.850341 1.324229,-1.488258 1.542969,-2.185547 0.218759,-0.697289 0.02382,-1.379287 -0.140625,-1.779297 -0.164523,-0.400018 -0.27673,-0.615468 -0.308594,-0.980469 -0.03175,-0.364989 0.01814,-0.916371 0.398438,-1.853515 0.380341,-0.937141 0.726701,-1.370009 1.003906,-1.609375 0.277229,-0.239365 0.51486,-0.319296 0.908203,-0.486329 0.39334,-0.167032 1.009527,-0.513614 1.34375,-1.160156 0.333317,-0.64475 0.429575,-1.418943 0.419922,-2.589844 0.0098,-1.170896 -0.08663,-1.947047 -0.419922,-2.591796 -0.334197,-0.646554 -0.95041,-0.99117 -1.34375,-1.158204 -0.393343,-0.16703 -0.631001,-0.241104 -0.908203,-0.480468 -0.277202,-0.239366 -0.623561,-0.672233 -1.003906,-1.609375 -0.380345,-0.937144 -0.430295,-1.488514 -0.398438,-1.853516 0.03175,-0.365004 0.144109,-0.588264 0.308594,-0.988281 0.164523,-0.400017 0.359384,-1.082012 0.140625,-1.779297 -0.218759,-0.697286 -0.703685,-1.327394 -1.542969,-2.177734 -0.839281,-0.850341 -1.460662,-1.335572 -2.154296,-1.564453 -0.693638,-0.228879 -1.375383,-0.0533 -1.779297,0.103515 -0.403918,0.156817 -0.634705,0.26927 -1.003907,0.294922 -0.369222,0.02566 -0.926193,-0.03254 -1.861328,-0.427734 -0.931949,-0.393799 -1.337513,-0.748996 -1.564453,-1.027344 -0.226939,-0.27835 -0.299758,-0.524335 -0.472656,-0.939453 -0.172898,-0.415119 -0.559413,-1.046938 -1.232422,-1.373047 -0.673007,-0.32611 -1.487754,-0.427735 -2.753906,-0.427735 z m 0,2.003907 c 1.132134,0 1.696544,0.138264 1.882812,0.228515 0.186248,0.09026 0.138682,0.05383 0.257813,0.339844 0.119127,0.286016 0.297997,0.855682 0.767578,1.431641 0.469583,0.57596 1.199005,1.119483 2.339844,1.601562 1.13765,0.480732 2.036878,0.635427 2.777344,0.583985 0.740462,-0.05144 1.28362,-0.312317 1.585937,-0.429688 0.302324,-0.117373 0.258895,-0.122124 0.427734,-0.06641 0.16887,0.05572 0.627999,0.321381 1.367188,1.070312 0.739196,0.748933 0.994638,1.206532 1.046875,1.373047 0.05223,0.166519 0.05053,0.123266 -0.07227,0.421875 -0.122797,0.298617 -0.394498,0.833508 -0.458984,1.572266 -0.06448,0.738757 0.07555,1.641158 0.539062,2.783203 0.463507,1.142047 0.9886,1.883697 1.550782,2.369141 0.562182,0.485444 1.130949,0.684809 1.43164,0.8125 0.300699,0.127691 0.274031,0.09394 0.347656,0.236328 0.07359,0.142386 0.208215,0.629098 0.199219,1.667968 0.0091,1.038874 -0.12559,1.533416 -0.199219,1.675782 -0.07359,0.142363 -0.04692,0.10864 -0.347656,0.236328 -0.300699,0.127695 -0.869455,0.325103 -1.43164,0.810547 -0.562186,0.485444 -1.087275,1.229049 -1.550782,2.371093 -0.46351,1.14205 -0.603537,2.03663 -0.539062,2.775391 0.06448,0.738758 0.336187,1.273649 0.458984,1.572266 0.122797,0.29862 0.124499,0.253418 0.07227,0.419922 -0.05223,0.166526 -0.307694,0.624111 -1.046875,1.373047 -0.258369,0.26177 -0.482184,0.465346 -0.671875,0.623046 -0.257802,-0.174614 -0.523721,-0.341555 -0.796875,-0.505859 0.171364,-0.459337 -0.0121,-1.00742 -0.488281,-1.246094 l -4,-2 c -0.385592,-0.195439 -0.854335,-0.121981 -1.160157,0.183594 -1.349324,1.351891 -2.713531,2.712881 -4.048828,4.068359 h -0.480469 c -1.33268,-1.360686 -2.70105,-2.715927 -4.052734,-4.068359 -0.304545,-0.302147 -0.768643,-0.375412 -1.152344,-0.183594 l -4.001953,2 c -0.476701,0.23898 -0.66077,0.787407 -0.488281,1.246094 -0.272194,0.162746 -0.538001,0.331842 -0.794922,0.505859 -0.189687,-0.157682 -0.413359,-0.361099 -0.671875,-0.623046 -0.739196,-0.748936 -0.996597,-1.206533 -1.048828,-1.373047 -0.05223,-0.166526 -0.04862,-0.121324 0.07422,-0.419922 0.122793,-0.298621 0.386691,-0.833508 0.451172,-1.572266 0.06448,-0.738764 -0.06971,-1.633339 -0.533204,-2.775391 -0.463507,-1.142045 -0.99446,-1.885649 -1.55664,-2.371093 -0.562184,-0.485442 -1.130939,-0.682857 -1.431641,-0.810547 -0.30069,-0.127693 -0.274071,-0.09395 -0.347656,-0.236328 -0.07362,-0.142385 -0.200402,-0.636914 -0.191406,-1.667969 7e-6,-0.0025 7e-6,-0.0054 0,-0.0078 7e-6,-0.0025 7e-6,-0.0054 0,-0.0078 -0.0091,-1.031085 0.117822,-1.517775 0.191406,-1.660156 0.07362,-0.142386 0.04697,-0.108645 0.347656,-0.236328 0.300692,-0.12772 0.869457,-0.327057 1.431641,-0.8125 0.562179,-0.485446 1.093133,-1.227094 1.55664,-2.369141 0.463515,-1.142044 0.59768,-2.044443 0.533204,-2.783203 -0.06448,-0.738761 -0.328368,-1.273649 -0.451172,-1.572266 -0.122793,-0.298616 -0.12645,-0.25536 -0.07422,-0.421875 0.05223,-0.166513 0.309643,-0.624114 1.048828,-1.373047 0.739189,-0.74893 1.188558,-1.014591 1.357422,-1.070312 0.168862,-0.05572 0.133232,-0.05096 0.435547,0.06641 0.302317,0.117373 0.847432,0.378244 1.58789,0.429688 0.740466,0.05144 1.637743,-0.103256 2.775391,-0.583985 1.140838,-0.482077 1.870259,-1.025602 2.339844,-1.601562 0.46958,-0.575959 0.648451,-1.145622 0.767578,-1.431641 0.119127,-0.286019 0.06571,-0.249581 0.251953,-0.339844 0.186248,-0.09024 0.754589,-0.228515 1.886719,-0.228515 z M 4.0019531,16.007812 C 1.8047271,16.007812 0,17.812389 0,20.009766 c 0,2.197377 1.8047271,3.992186 4.0019531,3.992187 2.1972257,0 4,-1.79481 4,-3.992187 0,-2.197377 -1.8027705,-4.001953 -4,-4.001954 z m 55.9960939,0 c -2.197228,2e-6 -4.001953,1.804578 -4.001953,4.001954 0,2.197376 1.804725,3.992186 4.001953,3.992187 C 62.195275,24.001952 64,22.207142 64,20.009766 64,17.81239 62.195275,16.007814 59.998047,16.007812 Z m -28,4.998047 c -4.406315,0 -8,3.595226 -8,8.001953 0,4.40673 3.593685,8.001954 8,8.001954 C 36.404365,37.009766 40,33.414542 40,29.007812 40,24.601083 36.404365,21.005859 31.998047,21.005859 Z M 10.210938,23.009766 C 9.8092709,22.969328 9.4520848,23.177922 9.2578125,23.5 8.9824437,23.97903 9.1477922,24.590145 9.6269531,24.865234 l 1.8593749,1.078125 c 0.478999,0.275384 1.090166,0.110058 1.365234,-0.36914 0.275369,-0.479028 0.110013,-1.090144 -0.36914,-1.365235 l -1.859375,-1.070312 c -0.139407,-0.07365 -0.278221,-0.115423 -0.412109,-0.128906 z m 43.748046,0.002 c -0.0944,-0.0086 -0.187482,-0.0038 -0.27539,0.01172 -0.117203,0.02067 -0.225521,0.06174 -0.314453,0.115234 l -1.853516,1.070312 c -0.479172,0.275082 -0.644487,0.886202 -0.369141,1.365235 0.275074,0.4792 0.888189,0.644522 1.367188,0.36914 l 1.851562,-1.070312 c 0.479169,-0.275093 0.644491,-0.886202 0.369141,-1.365235 -0.197663,-0.325724 -0.49218,-0.470367 -0.775391,-0.496093 z M 4.0019531,26.001953 c -0.5553473,-0.0022 -1.0080514,0.450475 -1.0058593,1.005859 v 15 c 0.0019,0.552499 0.4533996,0.998275 1.0058593,0.996094 0.549583,-0.0019 0.994204,-0.446475 0.9960938,-0.996094 v -15 c 0.00218,-0.552498 -0.4436308,-1.00396 -0.9960938,-1.005859 z m 55.9960939,0 c -0.555345,-0.0022 -1.006102,0.450475 -1.003906,1.005859 v 15 c 0.0019,0.552499 0.451445,0.998275 1.003906,0.996094 0.549577,-0.0019 0.994204,-0.446475 0.996094,-0.996094 v -15 c 0.0022,-0.552498 -0.443633,-1.00396 -0.996094,-1.005859 z M 26.802734,39.224609 29.585938,42.007812 28,43.585938 24.693359,40.279297 Z m 10.392578,0 2.111329,1.054688 L 36,43.585938 34.412109,42.007812 Z m -21.564453,1.607422 c -0.239958,0.0018 -0.425455,0.0885 -0.498047,0.134766 L 9.6269531,44.140625 C 9.1477876,44.415699 8.9824577,45.026831 9.2578125,45.505859 9.532879,45.985066 10.144044,46.150384 10.623047,45.875 l 5.505859,-3.173828 c 0.479166,-0.275074 0.644492,-0.886206 0.369141,-1.365234 -0.132582,-0.233311 -0.351999,-0.403764 -0.611328,-0.472657 -0.08998,-0.02268 -0.175873,-0.03163 -0.25586,-0.03125 z m 32.714844,0 c -0.337247,0.0068 -0.66353,0.183346 -0.845703,0.496094 -0.275376,0.479036 -0.110066,1.090149 0.369141,1.365234 l 5.5,3.181641 c 0.479002,0.275376 1.090168,0.110066 1.365234,-0.369141 0.275376,-0.479032 0.110066,-1.090149 -0.369141,-1.365234 l -5.5,-3.173828 c -0.163993,-0.09509 -0.342876,-0.138243 -0.519531,-0.134766 z m -24.898437,1.03711 3.84375,3.84375 c 0.390884,0.39256 1.025129,0.39256 1.416015,0 L 29.5,44.919922 l 0.435547,0.435547 -1.089844,7.605469 -0.833984,0.21289 C 27.95529,53.04351 27.895222,52.887264 27.837891,52.710938 27.67477,52.209421 27.504832,51.567062 27.269531,50.916016 27.034225,50.264977 26.738324,49.594341 26.228516,49.019531 25.718702,48.444722 24.913137,48 23.998047,48 c -1.594568,0 -2.996094,1.296046 -2.996094,3.005859 v 2.996094 c 0,0.321789 0.03364,0.638476 0.09766,0.943359 L 20.75,55.035156 c -0.533725,0.139049 -0.852902,0.684737 -0.714844,1.21875 0.135753,0.536754 0.680555,0.860265 1.216797,0.722656 l 7.292969,-1.876953 -0.53711,3.759766 c -0.0378,0.27258 0.03798,0.547027 0.207032,0.759766 l -8.519532,2.296875 c -0.0038,7.67e-4 -0.0037,-7.53e-4 -0.0078,0 -1.135585,0.218872 -1.746274,0.02077 -2.103516,-0.28125 C 17.225496,61.331799 17,60.800536 17,60.003906 v -6.998047 c 0,-5.040219 2.070248,-8.70113 6.447266,-11.136718 z m 17.105468,0 c 4.376005,2.435561 6.445313,6.097066 6.445313,11.136718 v 6.998047 c 0,0.796634 -0.223558,1.327904 -0.582031,1.63086 -0.357241,0.301908 -0.96793,0.500156 -2.103516,0.28125 l -8.476562,-2.279297 c 0.708811,-0.190677 1.417965,-0.380308 2.126953,-0.570313 0.396997,-0.106393 0.730395,-0.317519 1,-0.585937 1.235047,-0.129298 2.325512,-0.763798 3.060547,-1.691407 l 0.722656,0.1875 c 0.536243,0.137616 1.083008,-0.185876 1.21875,-0.722656 0.138066,-0.534017 -0.183082,-1.079682 -0.716797,-1.21875 l -0.351563,-0.08789 c 0.06591,-0.305084 0.101563,-0.621313 0.101563,-0.945313 V 51.005859 C 42.998047,49.296046 41.594586,48 40,48 c -1.483162,0 -2.273847,0.764415 -2.759766,1.521484 -0.380807,0.593311 -0.612511,1.160827 -0.841796,1.572266 -0.166703,-0.0031 -0.335962,0.01473 -0.523438,0.05664 l -0.953125,0.242187 -0.857422,-6.019531 0.447266,-0.439453 0.779297,0.779297 c 0.390887,0.39256 1.027079,0.39256 1.417968,0 z m -8.787109,0.769531 0.466797,0.002 c 0.265655,0.303194 0.576876,0.590527 0.867187,0.880859 l -1.09375,1.076172 -1.089843,-1.091797 c 0.288068,-0.276963 0.577204,-0.587268 0.849609,-0.867187 z M 4.0019531,45.003906 C 1.8047271,45.003906 0,46.808484 0,49.005859 c 0,2.197376 1.8047271,3.999997 4.0019531,4 2.1972295,0 4,-1.802624 4,-4 -3.8e-6,-2.197375 -1.8027743,-4.001953 -4,-4.001953 z m 55.9960939,0 c -2.197228,0 -4.001953,1.804574 -4.001953,4.001953 4e-6,2.197376 1.804725,3.999997 4.001953,4 2.197228,-3e-6 4.001949,-1.802624 4.001953,-4 0,-2.197379 -1.804725,-4.001953 -4.001953,-4.001953 z m -28.267578,1.962891 c 0.175854,0.04902 0.361153,0.04895 0.537109,0 l 1.671875,11.679687 -1.941406,1.941407 -1.939453,-1.941407 z M 10.035156,51.5 c -0.3377648,0.0083 -0.6632372,0.187466 -0.8437498,0.501953 -0.2753688,0.479029 -0.1119658,1.090138 0.3671876,1.365235 l 1.9433592,1.123046 c 0.479003,0.275377 1.090165,0.110066 1.365235,-0.36914 0.275368,-0.479036 0.11002,-1.090145 -0.369141,-1.365235 L 10.556641,51.632812 C 10.391974,51.538135 10.212084,51.495654 10.035156,51.5 Z m 43.88086,0 c -0.161273,0.0038 -0.322961,0.04675 -0.472657,0.132812 l -1.949218,1.123047 c -0.476485,0.277607 -0.637941,0.888134 -0.361329,1.365235 0.275075,0.479198 0.886236,0.644517 1.365235,0.36914 l 1.941406,-1.123046 c 0.479172,-0.275075 0.644479,-0.886202 0.369141,-1.365235 C 54.619466,51.67253 54.270796,51.491515 53.916016,51.5 Z m -17.548828,1.589844 c 0.07917,-0.0053 0.272512,0.06279 0.511718,0.330078 0.29441,0.32897 0.601246,0.918624 0.773438,1.535156 0.172195,0.616528 0.212635,1.265948 0.126953,1.667969 -0.08568,0.402017 -0.151748,0.461456 -0.332031,0.509765 l -1.644532,0.445313 -0.597656,-4.191406 z" id="path878" style="opacity:1;fill:#000000;fill-opacity:1;stroke:none;stroke-width:2;stroke-linecap:round;stroke-linejoin:round;stroke-miterlimit:4;stroke-dasharray:none;stroke-dashoffset:0;stroke-opacity:1" transform="scale(0.26458334)"/></g></svg>