<?xml version="1.0" encoding="utf-8"?><svg version="1.1" id="Layer_1" xmlns="http://www.w3.org/2000/svg" xmlns:xlink="http://www.w3.org/1999/xlink" x="0px" y="0px" viewBox="0 0 122.88 108.22" style="enable-background:new 0 0 122.88 108.22" xml:space="preserve"><g><path d="M58.55,89.98l0.2-0.15v-7.77H3.02c-0.83,0-1.58-0.34-2.13-0.89C0.34,80.63,0,79.87,0,79.05c0-0.83,0.34-1.58,0.89-2.13 c0.55-0.55,1.3-0.89,2.13-0.89h8V14.15h-8c-0.83,0-1.58-0.34-2.13-0.89L0.83,13.2C0.32,12.66,0,11.93,0,11.13 C0,10.31,0.34,9.55,0.89,9c0.55-0.55,1.3-0.89,2.13-0.89h55.4V3.02c0-0.83,0.34-1.58,0.89-2.13C59.86,0.34,60.61,0,61.44,0 c0.82,0,1.58,0.34,2.13,0.89c0.55,0.55,0.89,1.3,0.89,2.13v5.09h55.4c0.82,0,1.58,0.34,2.13,0.89s0.89,1.31,0.89,2.13 c0,0.82-0.34,1.58-0.89,2.13c-0.55,0.55-1.3,0.9-2.13,0.9h-7.89v38.92l-6-2.81V14.15h-88.9v61.87h74.99l3.44,6.04H64.75v8.08 c4.07,4.22,8.82,8.17,13,12.34c0.57,0.57,0.87,1.32,0.89,2.07c0.02,0.75-0.25,1.51-0.81,2.09l-0.08,0.08 c-0.57,0.57-1.32,0.87-2.07,0.89c-0.76,0.02-1.51-0.25-2.09-0.8c-2.87-2.83-5.91-5.6-8.84-8.37v6.75c0,0.83-0.34,1.58-0.89,2.13 l-0.06,0.06c-0.54,0.51-1.27,0.83-2.07,0.83c-0.82,0-1.58-0.34-2.13-0.89l0,0c-0.55-0.55-0.89-1.31-0.89-2.13v-7.15 c-3.05,2.89-6.14,6-9.26,8.79c-0.6,0.55-1.36,0.81-2.1,0.79c-0.75-0.02-1.49-0.32-2.05-0.91l-0.08-0.09 c-0.55-0.6-0.81-1.36-0.79-2.1c0.02-0.75,0.32-1.5,0.91-2.05c4.36-4.05,8.66-8.23,12.98-12.33C58.39,90.08,58.46,90.03,58.55,89.98 L58.55,89.98z M95.72,54.98l-1.69-1.69c-0.18-0.18-0.43-0.25-0.66-0.21l-5.68,0.63c-0.41,0.05-0.71,0.42-0.66,0.83 c0.02,0.18,0.1,0.33,0.22,0.45l0,0l4.23,4.23l-0.3,0.3c-0.29,0.29-0.29,0.77,0,1.06l1.33,1.33l0,0l0.02,0.02 c0.05,0.05,0.11,0.11,0.15,0.18c0.05,0.06,0.09,0.14,0.12,0.21c0.26,0.56,0.15,1.78,0.07,2.73l0,0c-0.02,0.27-0.05,0.53-0.06,0.7 c-0.16,1.25,0.64,1.98,1.44,2.7c-0.22,0.35-0.33,0.76-0.34,1.16c0,0.52,0.18,1.04,0.56,1.43c0.04,0.04,0.09,0.08,0.15,0.13 l16.34,13.25c0.45,0.36,1,0.56,1.53,0.56c0.54,0,1.07-0.19,1.49-0.61l7.27-7.27c0.42-0.42,0.62-0.96,0.62-1.5 c0-0.54-0.2-1.09-0.58-1.53l-13.64-15.96c-0.04-0.05-0.08-0.09-0.1-0.11c-0.4-0.4-0.92-0.58-1.46-0.58c-0.4,0-0.8,0.12-1.16,0.33 c-0.72-0.8-1.44-1.6-2.7-1.44c-0.26,0.02-0.47,0.03-0.7,0.05l0,0c-0.95,0.08-2.17,0.19-2.73-0.07c-0.08-0.04-0.15-0.08-0.21-0.12 c0.02,0,0.04,0,0.06,0c0.02,0,0.04,0,0.06,0c-0.01-0.02-0.03-0.03-0.05-0.05l-1.33-1.33c-0.29-0.29-0.77-0.29-1.06,0l-0.31,0.31 L95.72,54.98L95.72,54.98z M92.77,60.05l0.31-0.3l3.18-3.18l0.3-0.3l0.82,0.82c0.11,0.12,0.24,0.22,0.37,0.31 c0.15,0.1,0.3,0.19,0.45,0.26c0.92,0.43,2.36,0.3,3.49,0.2l0,0c0.28-0.02,0.54-0.05,0.68-0.06l0.06-0.01 c0.49-0.07,0.96,0.45,1.42,0.97l-8.57,8.57c-0.52-0.46-1.04-0.93-0.97-1.42l0.01-0.06c0.01-0.24,0.03-0.46,0.05-0.68h0 c0.1-1.12,0.23-2.56-0.2-3.49c-0.07-0.16-0.16-0.31-0.26-0.45c-0.1-0.13-0.21-0.26-0.34-0.39l0,0L92.77,60.05L92.77,60.05 L92.77,60.05z M87.71,45.11l6,0.67c-0.33,1.25-0.87,2.34-1.63,3.26c-0.75,0.92-1.72,1.63-2.9,2.14c-1.17,0.51-2.66,0.76-4.47,0.76 c-1.75,0-3.21-0.16-4.37-0.49c-1.16-0.33-2.16-0.86-3-1.59c-0.84-0.73-1.49-1.58-1.97-2.57c-0.48-0.98-0.71-2.29-0.71-3.91 c0-1.69,0.29-3.11,0.87-4.23c0.42-0.83,1.01-1.57,1.74-2.23c0.74-0.66,1.49-1.15,2.27-1.47c1.23-0.51,2.81-0.76,4.73-0.76 c2.69,0,4.74,0.48,6.16,1.44c1.41,0.96,2.4,2.37,2.98,4.21l-5.94,0.79c-0.19-0.7-0.52-1.23-1.02-1.59 c-0.49-0.35-1.15-0.53-1.98-0.53c-1.04,0-1.89,0.38-2.54,1.12c-0.65,0.75-0.97,1.89-0.97,3.41c0,1.36,0.32,2.38,0.96,3.09 c0.64,0.7,1.46,1.05,2.45,1.05c0.83,0,1.52-0.21,2.09-0.63C87.01,46.62,87.43,45.98,87.71,45.11L87.71,45.11z M51.62,28.81H58v7.86 c0.63-0.66,1.34-1.15,2.15-1.49c0.8-0.33,1.68-0.49,2.66-0.49c2.01,0,3.66,0.72,4.98,2.17c1.31,1.45,1.97,3.52,1.97,6.23 c0,1.8-0.3,3.39-0.9,4.76c-0.6,1.37-1.43,2.4-2.49,3.08c-1.06,0.68-2.23,1.02-3.53,1.02c-1.11,0-2.12-0.24-3.04-0.71 c-0.69-0.38-1.45-1.07-2.27-2.11v2.44h-5.92V28.81L51.62,28.81z M57.95,43.25c0,1.42,0.26,2.46,0.8,3.09 c0.53,0.64,1.2,0.96,2.02,0.96c0.75,0,1.39-0.31,1.89-0.94c0.51-0.63,0.77-1.68,0.77-3.17c0-1.31-0.25-2.27-0.75-2.88 c-0.5-0.61-1.11-0.92-1.82-0.92c-0.86,0-1.56,0.32-2.1,0.96C58.22,40.98,57.95,41.95,57.95,43.25L57.95,43.25z M33.22,40.41 l-6.03-0.64c0.23-1.06,0.56-1.89,0.98-2.49c0.43-0.61,1.04-1.13,1.85-1.58c0.58-0.32,1.37-0.57,2.38-0.75 c1.01-0.17,2.11-0.26,3.29-0.26c1.89,0,3.4,0.11,4.55,0.32c1.14,0.21,2.1,0.66,2.86,1.33c0.54,0.47,0.96,1.13,1.27,1.98 c0.31,0.85,0.47,1.67,0.47,2.45v7.28c0,0.78,0.05,1.39,0.15,1.83c0.09,0.44,0.31,1,0.64,1.68h-5.91c-0.24-0.42-0.39-0.74-0.47-0.96 c-0.07-0.22-0.14-0.57-0.22-1.04c-0.83,0.79-1.65,1.36-2.47,1.7c-1.12,0.46-2.41,0.68-3.89,0.68c-1.96,0-3.46-0.45-4.47-1.37 c-1.02-0.91-1.53-2.04-1.53-3.37c0-1.25,0.37-2.29,1.1-3.1c0.74-0.81,2.09-1.41,4.07-1.81c2.37-0.48,3.9-0.81,4.61-1.01 c0.7-0.19,1.45-0.44,2.23-0.75c0-0.78-0.16-1.32-0.48-1.63c-0.32-0.31-0.88-0.47-1.68-0.47c-1.03,0-1.81,0.16-2.32,0.5 C33.79,39.2,33.47,39.69,33.22,40.41L33.22,40.41z M38.68,43.71c-0.87,0.31-1.77,0.59-2.72,0.83c-1.28,0.34-2.1,0.68-2.44,1.02 C33.17,45.9,33,46.29,33,46.73c0,0.5,0.17,0.92,0.52,1.23c0.35,0.32,0.86,0.48,1.53,0.48c0.7,0,1.36-0.17,1.97-0.52 c0.6-0.34,1.03-0.76,1.29-1.26c0.25-0.5,0.38-1.14,0.38-1.94V43.71L38.68,43.71z"/></g></svg>